# xmcd CD database file
#
# Track frame offsets:
#	150
#	10277
#	21085
#	38065
#	58055
#	67673
#	81702
#	97017
#	106326
#	123056
#	132876
#
# Disc length: 1954 seconds
#
# Revision: 0
# Processed by: cddbd v1.5.2PL0 Copyright (c) Steve Scherf et al.
# Submitted via: CDex 1.51
#
DISCID=8a07a00b
DTITLE=Harmony Quartet - Vessel of mercy
DYEAR=2000
DGENRE=Country
TTITLE0=01 Out of his great love
TTITLE1=02 Boundless
TTITLE2=03 Vessel of Mercy
TTITLE3=04 Crimson River
TTITLE4=05 Bloodwashed
TTITLE5=06 Hard Trials
TTITLE6=07 Be Ye Holy
TTITLE7=08 Let it shine
TTITLE8=09Life will be
TTITLE9=10 When i move
TTITLE10=11 We are Home
EXTD=YEAR: 2000
EXTT0=
EXTT1=
EXTT2=
EXTT3=
EXTT4=
EXTT5=
EXTT6=
EXTT7=
EXTT8=
EXTT9=
EXTT10=
PLAYORDER=
